<?xml version="1.0" encoding="UTF-8" standalone="no"?>
<!-- Created with Inkscape (http://www.inkscape.org/) -->

<svg
   xmlns:dc="http://purl.org/dc/elements/1.1/"
   xmlns:cc="http://creativecommons.org/ns#"
   xmlns:rdf="http://www.w3.org/1999/02/22-rdf-syntax-ns#"
   xmlns:svg="http://www.w3.org/2000/svg"
   xmlns="http://www.w3.org/2000/svg"
   xmlns:sodipodi="http://sodipodi.sourceforge.net/DTD/sodipodi-0.dtd"
   xmlns:inkscape="http://www.inkscape.org/namespaces/inkscape"
   version="1.1"
   id="svg815"
   xml:space="preserve"
   width="1600"
   height="1000"
   viewBox="0 0 1600 1000"
   sodipodi:docname="yUsblNoise.svg"
   inkscape:version="0.92.4 (5da689c313, 2019-01-14)"><metadata
     id="metadata821"><rdf:RDF><cc:Work
         rdf:about=""><dc:format>image/svg+xml</dc:format><dc:type
           rdf:resource="http://purl.org/dc/dcmitype/StillImage" /><dc:title></dc:title></cc:Work></rdf:RDF></metadata><defs
     id="defs819"><clipPath
       clipPathUnits="userSpaceOnUse"
       id="clipPath837"><path
         d="M 180,1800 H 5940 V 6120 H 180 Z"
         id="path835"
         inkscape:connector-curvature="0" /></clipPath></defs><sodipodi:namedview
     pagecolor="#ffffff"
     bordercolor="#666666"
     borderopacity="1"
     objecttolerance="10"
     gridtolerance="10"
     guidetolerance="10"
     inkscape:pageopacity="0"
     inkscape:pageshadow="2"
     inkscape:window-width="1304"
     inkscape:window-height="745"
     id="namedview817"
     showgrid="false"
     inkscape:zoom="0.54545455"
     inkscape:cx="743.96599"
     inkscape:cy="528"
     inkscape:window-x="54"
     inkscape:window-y="-8"
     inkscape:window-maximized="1"
     inkscape:current-layer="g833" /><g
     id="g823"
     inkscape:groupmode="layer"
     inkscape:label="yUsblNoise"
     transform="matrix(1.3333333,0,0,-1.3333333,0,1000)"><g
       id="g825"
       transform="matrix(0.1,0,0,0.1,193.875,-39.875001)"><path
         d="M 180,2666.25 H 6091.25 V 6120 H 180 Z"
         style="fill:#ffffff;fill-opacity:1;fill-rule:nonzero;stroke:none;stroke-width:0.90579933"
         id="path827"
         inkscape:connector-curvature="0" /><path
         d="M 180,2666.25 H 6091.25 V 6120 H 180 Z"
         style="fill:#ffffff;fill-opacity:1;fill-rule:nonzero;stroke:none;stroke-width:0.90579933"
         id="path829"
         inkscape:connector-curvature="0" /><g
         id="g831"><g
           id="g833"
           clip-path="url(#clipPath837)"
           transform="translate(-41.250001,206.25001)"><path
             d="M 947.38036,3004.8051 H 5528.5981 L 947.38036,5819.6113"
             style="fill:#ffffff;fill-opacity:1;fill-rule:nonzero;stroke:none;stroke-width:0.90579933"
             id="path839"
             inkscape:connector-curvature="0" /><path
             d="M 5528.5981,3004.8051 V 5819.6113 H 947.38036"
             style="fill:#ffffff;fill-opacity:1;fill-rule:nonzero;stroke:none;stroke-width:6.79349518;stroke-miterlimit:10;stroke-dasharray:none"
             id="path841"
             inkscape:connector-curvature="0" /><path
             d="m 2092.684,3004.8051 v 35.6967"
             style="fill:none;stroke:#262626;stroke-width:4.52899647;stroke-linecap:butt;stroke-linejoin:miter;stroke-miterlimit:10;stroke-dasharray:none;stroke-opacity:1"
             id="path847"
             inkscape:connector-curvature="0" /><path
             d="m 2092.684,5819.6113 v -35.6967"
             style="fill:none;stroke:#262626;stroke-width:4.52899647;stroke-linecap:butt;stroke-linejoin:miter;stroke-miterlimit:10;stroke-dasharray:none;stroke-opacity:1"
             id="path849"
             inkscape:connector-curvature="0" /><path
             d="m 3237.9887,3004.8051 v 35.6967"
             style="fill:none;stroke:#262626;stroke-width:4.52899647;stroke-linecap:butt;stroke-linejoin:miter;stroke-miterlimit:10;stroke-dasharray:none;stroke-opacity:1"
             id="path851"
             inkscape:connector-curvature="0" /><path
             d="m 3237.9887,5819.6113 v -35.6967"
             style="fill:none;stroke:#262626;stroke-width:4.52899647;stroke-linecap:butt;stroke-linejoin:miter;stroke-miterlimit:10;stroke-dasharray:none;stroke-opacity:1"
             id="path853"
             inkscape:connector-curvature="0" /><path
             d="m 4383.2934,3004.8051 v 35.6967"
             style="fill:none;stroke:#262626;stroke-width:4.52899647;stroke-linecap:butt;stroke-linejoin:miter;stroke-miterlimit:10;stroke-dasharray:none;stroke-opacity:1"
             id="path855"
             inkscape:connector-curvature="0" /><path
             d="m 4383.2934,5819.6113 v -35.6967"
             style="fill:none;stroke:#262626;stroke-width:4.52899647;stroke-linecap:butt;stroke-linejoin:miter;stroke-miterlimit:10;stroke-dasharray:none;stroke-opacity:1"
             id="path857"
             inkscape:connector-curvature="0" /><path
             d="m 5528.5981,3004.8051 v 35.6967"
             style="fill:none;stroke:#262626;stroke-width:4.52899647;stroke-linecap:butt;stroke-linejoin:miter;stroke-miterlimit:10;stroke-dasharray:none;stroke-opacity:1"
             id="path859"
             inkscape:connector-curvature="0" /><path
             d="m 5528.5981,5819.6113 v -35.6967"
             style="fill:none;stroke:#262626;stroke-width:4.52899647;stroke-linecap:butt;stroke-linejoin:miter;stroke-miterlimit:10;stroke-dasharray:none;stroke-opacity:1"
             id="path861"
             inkscape:connector-curvature="0" /><path
             d="m 947.38036,3004.8051 h 45.85221"
             style="fill:none;stroke:#262626;stroke-width:4.52899647;stroke-linecap:butt;stroke-linejoin:miter;stroke-miterlimit:10;stroke-dasharray:none;stroke-opacity:1"
             id="path869"
             inkscape:connector-curvature="0" /><path
             d="m 5528.5981,3004.8051 h -45.8533"
             style="fill:none;stroke:#262626;stroke-width:4.52899647;stroke-linecap:butt;stroke-linejoin:miter;stroke-miterlimit:10;stroke-dasharray:none;stroke-opacity:1"
             id="path871"
             inkscape:connector-curvature="0" /><path
             d="m 947.38036,3567.7663 h 45.85221"
             style="fill:none;stroke:#262626;stroke-width:4.52899647;stroke-linecap:butt;stroke-linejoin:miter;stroke-miterlimit:10;stroke-dasharray:none;stroke-opacity:1"
             id="path873"
             inkscape:connector-curvature="0" /><path
             d="m 5528.5981,3567.7663 h -45.8533"
             style="fill:none;stroke:#262626;stroke-width:4.52899647;stroke-linecap:butt;stroke-linejoin:miter;stroke-miterlimit:10;stroke-dasharray:none;stroke-opacity:1"
             id="path875"
             inkscape:connector-curvature="0" /><path
             d="m 947.38036,4130.7276 h 45.85221"
             style="fill:none;stroke:#262626;stroke-width:4.52899647;stroke-linecap:butt;stroke-linejoin:miter;stroke-miterlimit:10;stroke-dasharray:none;stroke-opacity:1"
             id="path877"
             inkscape:connector-curvature="0" /><path
             d="m 5528.5981,4130.7276 h -45.8533"
             style="fill:none;stroke:#262626;stroke-width:4.52899647;stroke-linecap:butt;stroke-linejoin:miter;stroke-miterlimit:10;stroke-dasharray:none;stroke-opacity:1"
             id="path879"
             inkscape:connector-curvature="0" /><path
             d="m 947.38036,4693.6888 h 45.85221"
             style="fill:none;stroke:#262626;stroke-width:4.52899647;stroke-linecap:butt;stroke-linejoin:miter;stroke-miterlimit:10;stroke-dasharray:none;stroke-opacity:1"
             id="path881"
             inkscape:connector-curvature="0" /><path
             d="m 5528.5981,4693.6888 h -45.8533"
             style="fill:none;stroke:#262626;stroke-width:4.52899647;stroke-linecap:butt;stroke-linejoin:miter;stroke-miterlimit:10;stroke-dasharray:none;stroke-opacity:1"
             id="path883"
             inkscape:connector-curvature="0" /><path
             d="m 947.38036,5256.6501 h 45.85221"
             style="fill:none;stroke:#262626;stroke-width:4.52899647;stroke-linecap:butt;stroke-linejoin:miter;stroke-miterlimit:10;stroke-dasharray:none;stroke-opacity:1"
             id="path885"
             inkscape:connector-curvature="0" /><path
             d="m 5528.5981,5256.6501 h -45.8533"
             style="fill:none;stroke:#262626;stroke-width:4.52899647;stroke-linecap:butt;stroke-linejoin:miter;stroke-miterlimit:10;stroke-dasharray:none;stroke-opacity:1"
             id="path887"
             inkscape:connector-curvature="0" /><path
             d="m 947.38036,5819.6113 h 45.85221"
             style="fill:none;stroke:#262626;stroke-width:4.52899647;stroke-linecap:butt;stroke-linejoin:miter;stroke-miterlimit:10;stroke-dasharray:none;stroke-opacity:1"
             id="path889"
             inkscape:connector-curvature="0" /><path
             d="m 5528.5981,5819.6113 h -45.8533"
             style="fill:none;stroke:#262626;stroke-width:4.52899647;stroke-linecap:butt;stroke-linejoin:miter;stroke-miterlimit:10;stroke-dasharray:none;stroke-opacity:1"
             id="path891"
             inkscape:connector-curvature="0" /><path
             d="M 947.38036,3004.8051 H 5033.5981"
             style="fill:none;stroke:#262626;stroke-width:6.79349518;stroke-linecap:square;stroke-linejoin:miter;stroke-miterlimit:10;stroke-dasharray:217.39184515, 0;stroke-dashoffset:0;stroke-opacity:1"
             id="path909"
             inkscape:connector-curvature="0"
             sodipodi:nodetypes="cc" /><path
             d="M 947.38036,5819.6113 H 5048.5981"
             style="fill:none;stroke:#262626;stroke-width:11.54894161;stroke-linecap:square;stroke-linejoin:miter;stroke-miterlimit:10;stroke-dasharray:369.56613675, 0;stroke-dashoffset:0;stroke-opacity:1"
             id="path911"
             inkscape:connector-curvature="0"
             sodipodi:nodetypes="cc" /><path
             d="M 947.38036,3004.8051 V 5819.6113"
             style="fill:none;stroke:#262626;stroke-width:11.54894161;stroke-linecap:square;stroke-linejoin:miter;stroke-miterlimit:10;stroke-dasharray:369.56613675, 0;stroke-dashoffset:0;stroke-opacity:1"
             id="path913"
             inkscape:connector-curvature="0" /><path
             d="M 5033.5981,3004.8051 V 5819.6113"
             style="fill:none;stroke:#262626;stroke-width:11.54894161;stroke-linecap:square;stroke-linejoin:miter;stroke-miterlimit:10;stroke-dasharray:369.56613675, 0;stroke-dashoffset:0;stroke-opacity:1"
             id="path915"
             inkscape:connector-curvature="0" /><path
             d="m 947.38036,4693.6888 22.90609,63.3668 22.90712,-55.1881 22.90403,26.5987 22.9061,6.9155 22.9061,13.6631 22.9061,19.6032 22.9061,2.7822 22.9061,15.8776 22.9061,-1212.0983 22.9061,1288.1208 22.9061,122.3763 22.9061,122.2883 22.906,101.0942 22.9061,-4.7489 22.9061,-14.0469 22.9061,-13.6711 22.9061,-19.5313 22.9061,-13.4472 22.9061,-1568.4342 22.9061,1538.8055 22.9061,-16.4293 22.9061,-13.0075 22.9061,-14.3027 22.9061,-18.8517 22.9061,-17.5726 22.9061,-11.6004 22.9061,-13.5992 22.9061,-15.8456 22.906,-15.1662 22.9061,-61.9596 22.9061,-125.79 22.9061,-113.5341 22.9061,-124.6867 22.9061,-124.7188 22.9061,-119.1304 22.9061,-125.5742 22.9061,-113.542 22.9061,-11.5765 22.9061,-481.918 22.9061,492.6231 22.9061,16.3173 22.9061,-0.2798 22.9061,6.2999 22.9061,10.0175 22.906,7.3472 22.9061,5.3805 22.9061,8.2986 22.9061,5.1087 22.9061,8.6823 22.9061,4.621 22.9061,8.5144 22.9061,5.7243 22.9061,11.4166 22.9061,52.7016 22.9061,76.7181 22.9061,59.1694 22.9061,73.768 22.9061,181.4418 22.9061,-1033.8705 22.9061,1140.3931 22.906,110.8477 22.9061,-7.4591 22.9061,189.5965 22.9061,143.9302 22.9061,118.6987 22.9061,95.2819 22.9061,68.6513 22.9061,163.7413 22.9061,2.9181 22.9061,55.3959 22.9061,-14.7264 22.9061,-20.9463 22.9061,-66.5567 22.9061,-81.7947 22.9061,-2.6383 22.9061,-78.0771 22.906,59.6731 22.9061,27.4701 22.9061,-1904.3993 22.9061,1900.9536 22.9061,2.4864 22.9061,10.2493 22.9061,-65.8691 22.9061,-98.0801 22.9061,82.818 22.9061,-10.0654 22.9061,5.8282 22.9061,87.3191 22.9061,-207.6567 22.9061,140.5005 22.9061,-131.3625 22.9061,-82.826 22.906,-207.305 22.9061,64.494 22.9061,-201.9484 22.9061,76.4142 22.9061,-127.6129 22.9061,-139.9728 22.9061,-1098.3644 22.9061,791.0047 22.9061,-7.5551 22.9061,-25.4634 22.9061,-148.991 22.9061,-36.2963 22.9061,-52.7337 22.9061,-289.1716 22.9061,76.8939 22.9061,61.0403 22.9061,-185.2873 22.906,7.2992 22.9061,-90.8208 22.9061,11.5525 22.9061,-152.6206 22.9061,8.5464 22.9061,-158.2489 22.9061,14.8543 22.9061,23.6007 22.9061,221.3278 22.9061,-68.9311 22.9061,228.3552 22.9061,55.0921 22.9061,112.079 22.9061,146.7924 22.9061,114.2695 22.9061,0.12 22.906,156.7858 22.9061,234.6232 22.9061,-21.8258 22.9061,233.1681 22.9061,-326.7312 22.9061,71.8812 22.9061,9.5378 22.9061,-60.6885 22.9061,-42.876 22.9061,-8.2427 22.9061,132.3138 22.9061,-28.5414 22.9061,100.6305 22.9061,-1106.743 22.9061,1319.3405 22.9061,224.4538 22.906,6.8995 22.9061,-31.4116 22.9061,5.8522 22.9061,116.4921 22.9061,-11.0488 22.9061,26.2869 22.9061,-67.58 22.9061,9.4019 22.9061,-49.3279 22.9061,-18.316 22.9061,-43.7156 22.9061,-41.5729 22.9061,-29.5167 22.9061,-77.6135 22.9061,-99.807 22.9061,-99.4472"
             style="fill:none;stroke:#0072bd;stroke-width:13.58699036;stroke-linecap:butt;stroke-linejoin:round;stroke-miterlimit:10;stroke-dasharray:none;stroke-opacity:1"
             id="path917"
             inkscape:connector-curvature="0" /><text
             xml:space="preserve"
             style="font-style:normal;font-variant:normal;font-weight:bold;font-stretch:normal;font-size:320.00003052px;line-height:1.25;font-family:sans-serif;-inkscape-font-specification:'sans-serif Bold';letter-spacing:0px;word-spacing:0px;fill:#000000;fill-opacity:1;stroke:none;stroke-width:7.5"
             x="3533.75"
             y="-5445"
             id="text2694"
             transform="scale(1,-1)"><tspan
               sodipodi:role="line"
               x="3533.75"
               y="-5153.0542"
               style="font-size:200px;stroke-width:7.5"
               id="tspan2696" /></text>
<text
             xml:space="preserve"
             style="font-style:normal;font-variant:normal;font-weight:bold;font-stretch:normal;font-size:289.85580444px;line-height:1.25;font-family:sans-serif;-inkscape-font-specification:'sans-serif Bold';letter-spacing:0px;word-spacing:0px;fill:#000000;fill-opacity:1;stroke:none;stroke-width:6.79349518"
             x="831.57074"
             y="-3488.7881"
             id="text2702"
             transform="scale(1.1329868,-0.88262282)"><tspan
               sodipodi:role="line"
               x="831.57074"
               y="-3488.7881"
               style="font-size:181.15986633px;stroke-width:6.79349518"
               id="tspan2704">Noise added y-Axis of USBL Data</tspan></text>
<flowRoot
             xml:space="preserve"
             id="flowRoot2855"
             style="fill:black;fill-opacity:1;stroke:none;font-family:sans-serif;font-style:normal;font-weight:bold;font-size:26.66666667px;line-height:1.25;letter-spacing:0px;word-spacing:0px;-inkscape-font-specification:'sans-serif Bold';font-stretch:normal;font-variant:normal"><flowRegion
               id="flowRegion2857"><rect
                 id="rect2859"
                 width="128.33333"
                 height="570.16669"
                 x="913"
                 y="195.16667" /></flowRegion><flowPara
               id="flowPara2861"></flowPara></flowRoot></g></g><text
         xml:space="preserve"
         style="font-style:normal;font-variant:normal;font-weight:bold;font-stretch:normal;font-size:200px;line-height:1.25;font-family:sans-serif;-inkscape-font-specification:'sans-serif Bold';letter-spacing:0px;word-spacing:0px;fill:#000000;fill-opacity:1;stroke:none;stroke-width:7.5"
         x="3300.0002"
         y="-5706.25"
         id="text2849"
         transform="scale(1,-1)"><tspan
           sodipodi:role="line"
           id="tspan2847"
           x="3300.0002"
           y="-5523.7842"
           style="stroke-width:7.5" /></text>
</g></g></svg>