<?xml version="1.0" encoding="UTF-8" standalone="no"?>
<svg
   xmlns:dc="http://purl.org/dc/elements/1.1/"
   xmlns:cc="http://creativecommons.org/ns#"
   xmlns:rdf="http://www.w3.org/1999/02/22-rdf-syntax-ns#"
   xmlns:svg="http://www.w3.org/2000/svg"
   xmlns="http://www.w3.org/2000/svg"
   xmlns:sodipodi="http://sodipodi.sourceforge.net/DTD/sodipodi-0.dtd"
   xmlns:inkscape="http://www.inkscape.org/namespaces/inkscape"
   inkscape:export-ydpi="96"
   inkscape:export-xdpi="96"
   inkscape:export-filename="C:\Users\eeuma\Desktop\figures Corected\figure2.4.png"
   version="1.1"
   id="svg10"
   xml:space="preserve"
   width="600.58484"
   height="317.64948"
   viewBox="0 0 600.58484 317.64948"
   sodipodi:docname="figure2.4.svg"
   inkscape:version="1.0 (4035a4fb49, 2020-05-01)"><metadata
     id="metadata16"><rdf:RDF><cc:Work
         rdf:about=""><dc:format>image/svg+xml</dc:format><dc:type
           rdf:resource="http://purl.org/dc/dcmitype/StillImage" /><dc:title></dc:title></cc:Work></rdf:RDF></metadata><defs
     id="defs14" /><sodipodi:namedview
     inkscape:document-rotation="0"
     pagecolor="#ffffff"
     bordercolor="#666666"
     borderopacity="1"
     objecttolerance="10"
     gridtolerance="10"
     guidetolerance="10"
     inkscape:pageopacity="0"
     inkscape:pageshadow="2"
     inkscape:window-width="1304"
     inkscape:window-height="745"
     id="namedview12"
     showgrid="false"
     inkscape:zoom="0.84841946"
     inkscape:cx="61.614812"
     inkscape:cy="104.28618"
     inkscape:window-x="54"
     inkscape:window-y="-8"
     inkscape:window-maximized="1"
     inkscape:current-layer="g20" /><g
     id="g18"
     inkscape:groupmode="layer"
     inkscape:label="figure2.4"
     transform="matrix(1.3333333,0,0,1.3333333,0,3.2745702e-6)"><g
       id="g20"><path
         d="M 17.921625,227.668 H 446.6112 L 17.921625,3.316"
         style="fill:#ffffff;fill-opacity:1;fill-rule:nonzero;stroke:none;stroke-width:0.996242"
         id="path22" /><g
         id="g24"
         transform="matrix(0.98002905,0,0,1,-0.15672229,0)"><path
           d="m 18.447,227.668 v -2.844"
           style="fill:none;stroke:#232323;stroke-width:0.395093;stroke-linecap:butt;stroke-linejoin:miter;stroke-miterlimit:10;stroke-dasharray:none;stroke-opacity:1"
           id="path26" /></g><g
         id="g28"
         transform="matrix(0.98002905,0,0,1,-0.15672229,0)"><path
           d="M 18.447,3.316 V 6.164"
           style="fill:none;stroke:#232323;stroke-width:0.395093;stroke-linecap:butt;stroke-linejoin:miter;stroke-miterlimit:10;stroke-dasharray:none;stroke-opacity:1"
           id="path30" /></g><g
         id="g32"
         transform="matrix(0.98002905,0,0,1,-0.15672229,0)"><path
           d="m 105.932,227.668 v -2.844"
           style="fill:none;stroke:#232323;stroke-width:0.395093;stroke-linecap:butt;stroke-linejoin:miter;stroke-miterlimit:10;stroke-dasharray:none;stroke-opacity:1"
           id="path34" /></g><g
         id="g36"
         transform="matrix(0.98002905,0,0,1,-0.15672229,0)"><path
           d="M 105.932,3.316 V 6.164"
           style="fill:none;stroke:#232323;stroke-width:0.395093;stroke-linecap:butt;stroke-linejoin:miter;stroke-miterlimit:10;stroke-dasharray:none;stroke-opacity:1"
           id="path38" /></g><g
         id="g40"
         transform="matrix(0.98002905,0,0,1,-0.15672229,0)"><path
           d="m 193.418,227.668 v -2.844"
           style="fill:none;stroke:#232323;stroke-width:0.395093;stroke-linecap:butt;stroke-linejoin:miter;stroke-miterlimit:10;stroke-dasharray:none;stroke-opacity:1"
           id="path42" /></g><g
         id="g44"
         transform="matrix(0.98002905,0,0,1,-0.15672229,0)"><path
           d="m 280.9,227.668 v -2.844"
           style="fill:none;stroke:#232323;stroke-width:0.395093;stroke-linecap:butt;stroke-linejoin:miter;stroke-miterlimit:10;stroke-dasharray:none;stroke-opacity:1"
           id="path46" /></g><g
         id="g48"
         transform="matrix(0.98002905,0,0,1,-0.15672229,0)"><path
           d="m 368.386,227.668 v -2.844"
           style="fill:none;stroke:#232323;stroke-width:0.395093;stroke-linecap:butt;stroke-linejoin:miter;stroke-miterlimit:10;stroke-dasharray:none;stroke-opacity:1"
           id="path50" /></g><g
         id="g52"
         transform="matrix(0.98002905,0,0,1,-0.15672229,0)"><path
           d="M 368.386,3.316 V 6.164"
           style="fill:none;stroke:#232323;stroke-width:0.395093;stroke-linecap:butt;stroke-linejoin:miter;stroke-miterlimit:10;stroke-dasharray:none;stroke-opacity:1"
           id="path54" /></g><g
         id="g56"
         transform="matrix(0.98002905,0,0,1,-0.15672229,0)"><path
           d="m 455.871,227.668 v -2.844"
           style="fill:none;stroke:#232323;stroke-width:0.395093;stroke-linecap:butt;stroke-linejoin:miter;stroke-miterlimit:10;stroke-dasharray:none;stroke-opacity:1"
           id="path58" /></g><g
         id="g60"
         transform="matrix(0.98002905,0,0,1,-0.15672229,0)"><path
           d="M 455.871,3.316 V 6.164"
           style="fill:none;stroke:#232323;stroke-width:0.395093;stroke-linecap:butt;stroke-linejoin:miter;stroke-miterlimit:10;stroke-dasharray:none;stroke-opacity:1"
           id="path62" /></g><g
         id="g64"
         transform="matrix(0.98002905,0,0,1,-0.15672229,0)"><path
           d="m 18.447,227.668 h 4.379"
           style="fill:none;stroke:#232323;stroke-width:0.395093;stroke-linecap:butt;stroke-linejoin:miter;stroke-miterlimit:10;stroke-dasharray:none;stroke-opacity:1"
           id="path66" /></g><g
         id="g68"
         transform="matrix(0.98002905,0,0,1,-0.15672229,0)"><path
           d="m 455.871,227.668 h -4.379"
           style="fill:none;stroke:#232323;stroke-width:0.395093;stroke-linecap:butt;stroke-linejoin:miter;stroke-miterlimit:10;stroke-dasharray:none;stroke-opacity:1"
           id="path70" /></g><g
         id="g72"
         transform="matrix(0.98002905,0,0,1,-0.15672229,0)"><path
           d="m 18.447,182.797 h 4.379"
           style="fill:none;stroke:#232323;stroke-width:0.395093;stroke-linecap:butt;stroke-linejoin:miter;stroke-miterlimit:10;stroke-dasharray:none;stroke-opacity:1"
           id="path74" /></g><g
         id="g76"
         transform="matrix(0.98002905,0,0,1,-0.15672229,0)"><path
           d="m 455.871,182.797 h -4.379"
           style="fill:none;stroke:#232323;stroke-width:0.395093;stroke-linecap:butt;stroke-linejoin:miter;stroke-miterlimit:10;stroke-dasharray:none;stroke-opacity:1"
           id="path78" /></g><g
         id="g80"
         transform="matrix(0.98002905,0,0,1,-0.15672229,0)"><path
           d="m 18.447,137.93 h 4.379"
           style="fill:none;stroke:#232323;stroke-width:0.395093;stroke-linecap:butt;stroke-linejoin:miter;stroke-miterlimit:10;stroke-dasharray:none;stroke-opacity:1"
           id="path82" /></g><g
         id="g84"
         transform="matrix(0.98002905,0,0,1,-0.15672229,0)"><path
           d="m 455.871,137.93 h -4.379"
           style="fill:none;stroke:#232323;stroke-width:0.395093;stroke-linecap:butt;stroke-linejoin:miter;stroke-miterlimit:10;stroke-dasharray:none;stroke-opacity:1"
           id="path86" /></g><g
         id="g88"
         transform="matrix(0.98002905,0,0,1,-0.15672229,0)"><path
           d="m 18.447,93.059 h 4.379"
           style="fill:none;stroke:#232323;stroke-width:0.395093;stroke-linecap:butt;stroke-linejoin:miter;stroke-miterlimit:10;stroke-dasharray:none;stroke-opacity:1"
           id="path90" /></g><g
         id="g92"
         transform="matrix(0.98002905,0,0,1,-0.15672229,0)"><path
           d="m 455.871,93.059 h -4.379"
           style="fill:none;stroke:#232323;stroke-width:0.395093;stroke-linecap:butt;stroke-linejoin:miter;stroke-miterlimit:10;stroke-dasharray:none;stroke-opacity:1"
           id="path94" /></g><g
         id="g96"
         transform="matrix(0.98002905,0,0,1,-0.15672229,0)"><path
           d="m 18.447,48.191 h 4.379"
           style="fill:none;stroke:#232323;stroke-width:0.395093;stroke-linecap:butt;stroke-linejoin:miter;stroke-miterlimit:10;stroke-dasharray:none;stroke-opacity:1"
           id="path98" /></g><g
         id="g100"
         transform="matrix(0.98002905,0,0,1,-0.15672229,0)"><path
           d="m 455.871,48.191 h -4.379"
           style="fill:none;stroke:#232323;stroke-width:0.395093;stroke-linecap:butt;stroke-linejoin:miter;stroke-miterlimit:10;stroke-dasharray:none;stroke-opacity:1"
           id="path102" /></g><g
         id="g104"
         transform="matrix(0.98002905,0,0,1,-0.15672229,0)"><path
           d="m 18.447,3.316 h 4.379"
           style="fill:none;stroke:#232323;stroke-width:0.395093;stroke-linecap:butt;stroke-linejoin:miter;stroke-miterlimit:10;stroke-dasharray:none;stroke-opacity:1"
           id="path106" /></g><g
         id="g108"
         transform="matrix(0.98002905,0,0,1,-0.15672229,0)"><path
           d="m 455.871,3.316 h -4.379"
           style="fill:none;stroke:#232323;stroke-width:0.395093;stroke-linecap:butt;stroke-linejoin:miter;stroke-miterlimit:10;stroke-dasharray:none;stroke-opacity:1"
           id="path110" /></g><g
         id="g112"
         transform="matrix(0.98002905,0,0,1,-0.15672229,0)"><path
           d="M 18.447,227.668 H 455.871"
           style="fill:none;stroke:#232323;stroke-width:0.39529;stroke-linecap:square;stroke-linejoin:miter;stroke-miterlimit:10;stroke-dasharray:none;stroke-opacity:1"
           id="path114" /></g><g
         id="g116"
         transform="matrix(0.98002905,0,0,1,-0.15672229,0)"><path
           d="M 18.447,3.316 H 455.871"
           style="fill:none;stroke:#232323;stroke-width:0.592639;stroke-linecap:square;stroke-linejoin:miter;stroke-miterlimit:10;stroke-dasharray:none;stroke-opacity:1"
           id="path118" /></g><g
         id="g120"
         transform="matrix(0.98002905,0,0,1,-0.15672229,0)"><path
           d="M 18.447,227.668 V 3.316"
           style="fill:none;stroke:#232323;stroke-width:0.592639;stroke-linecap:square;stroke-linejoin:miter;stroke-miterlimit:10;stroke-dasharray:none;stroke-opacity:1"
           id="path122" /></g><g
         id="g124"
         transform="matrix(0.98002905,0,0,1,-0.15672229,0)"><path
           d="M 455.871,227.668 V 3.316"
           style="fill:none;stroke:#232323;stroke-width:0.592639;stroke-linecap:square;stroke-linejoin:miter;stroke-miterlimit:10;stroke-dasharray:none;stroke-opacity:1"
           id="path126" /></g><g
         id="g128"
         transform="matrix(0.98002905,0,0,1,-0.15672229,0)"><path
           d="M 248.196,13.59 V 228.16"
           style="fill:none;stroke:#000000;stroke-width:0.592639;stroke-linecap:butt;stroke-linejoin:miter;stroke-miterlimit:4;stroke-dasharray:3.55584, 3.55584;stroke-dashoffset:0;stroke-opacity:1"
           id="path130" /></g><g
         id="g132"
         transform="matrix(0.98002905,0,0,1,-0.15672229,0)"><path
           d="m 62.191,227.668 142.296,-0.953 4.371,-0.012 4.375,-0.066 4.376,-0.414 4.375,-2 4.375,-7.364 4.372,-20.507 4.375,-42.477 4.375,-63.234 4.375,-61.914 4.372,-23.497 4.375,23.497 1.614,22.886 2.761,39.028 4.376,63.234 4.375,42.477 4.371,20.507 4.375,7.364 4.376,2 4.375,0.414 4.375,0.066 4.372,0.012 163.898,0.953"
           style="fill:none;stroke:#0070bd;stroke-width:2.2399;stroke-linecap:butt;stroke-linejoin:round;stroke-miterlimit:10;stroke-dasharray:none;stroke-opacity:1"
           id="path134" /></g><g
         id="g136"
         transform="matrix(0.98002905,0,0,1,-0.15672229,0)"><path
           d="m 19.566,227.668 h 156.359 l 8.743,-0.008 4.375,-0.015 4.375,-0.028 4.371,-0.066 4.376,-0.125 4.375,-0.246 4.375,-0.45 4.376,-0.808 4.371,-1.371 4.375,-2.231 4.375,-3.468 4.376,-5.149 4.371,-7.293 4.375,-9.82 4.376,-12.586 4.375,-15.277 4.375,-17.504 4.371,-18.809 4.372,-18.785 4.375,-17.137 4.375,-13.797 4.376,-8.965 4.371,-3.105 4.375,3.105 4.376,8.965 4.375,13.797 4.371,17.137 4.375,18.785 4.376,18.809 4.375,17.504 4.375,15.277 4.372,12.586 4.375,9.82 4.375,7.293 4.375,5.149 4.376,3.468 4.371,2.231 4.375,1.371 4.372,0.808 4.375,0.45 4.371,0.246 4.375,0.125 4.376,0.066 4.375,0.028 4.375,0.015 4.372,0.004 8.75,0.004 h 65.613"
           style="fill:none;stroke:#d75117;stroke-width:1.56793;stroke-linecap:butt;stroke-linejoin:round;stroke-miterlimit:10;stroke-dasharray:none;stroke-opacity:1"
           id="path138" /></g><g
         id="g140"
         transform="matrix(0.98002905,0,0,1,-0.15672229,0)"><path
           d="m 19.566,227.375 47.001,-1.379 4.375,-0.555 4.371,-0.703 4.376,-0.89 4.375,-1.106 4.375,-1.371 4.371,-1.664 4.372,-2.016 4.375,-2.39 4.375,-2.813 4.376,-3.265 4.375,-3.754 4.371,-4.242 4.376,-4.747 4.375,-5.23 4.375,-5.68 4.371,-6.086 4.376,-6.418 4.375,-6.656 8.75,-13.558 4.372,-6.637 4.375,-6.348 4.375,-5.894 4.376,-5.297 4.375,-4.555 4.371,-3.691 4.372,-2.715 4.375,-1.664 4.375,-0.555 4.371,0.555 4.376,1.664 4.375,2.715 4.375,3.691 4.376,4.555 4.371,5.297 4.375,5.894 4.375,6.348 4.376,6.637 4.371,6.781 4.375,6.777 4.376,6.656 4.375,6.418 4.375,6.086 4.371,5.68 4.372,5.23 4.375,4.747 4.375,4.242 4.376,3.754 4.371,3.265 4.375,2.813 4.376,2.39 4.375,2.016 4.371,1.664 4.375,1.371 4.376,1.106 4.375,0.89 4.375,0.703 4.372,0.555 4.375,0.426 4.375,0.324 4.375,0.254 4.376,0.184 4.371,0.136 4.375,0.102 4.372,0.078 4.375,0.047 4.371,0.039 8.751,0.047 4.375,0.012 4.375,0.007 4.372,0.008 13.125,0.008 h 8.747 l 4.375,0.004 h 48.116"
           style="fill:none;stroke:#ebb01e;stroke-width:1.56793;stroke-linecap:butt;stroke-linejoin:round;stroke-miterlimit:10;stroke-dasharray:none;stroke-opacity:1"
           id="path142" /></g><g
         id="g144"
         transform="matrix(0.98002905,0,0,1,-0.15672229,0)"><path
           d="m 280.868,72.781 4.407,153.547 -4.375,1.34"
           style="fill:none;stroke:#000000;stroke-width:0.592639;stroke-linecap:butt;stroke-linejoin:miter;stroke-miterlimit:4;stroke-dasharray:3.55584, 3.55584;stroke-dashoffset:0;stroke-opacity:1"
           id="path146" /></g><g
         id="g148"
         transform="matrix(0.98002905,0,0,1,-0.15672229,0)"><path
           d="m 193.201,116.727 1.471,107.187 -2.939,1.856"
           style="fill:none;stroke:#000000;stroke-width:0.592639;stroke-linecap:butt;stroke-linejoin:miter;stroke-miterlimit:4;stroke-dasharray:3.55584, 3.55584;stroke-dashoffset:0;stroke-opacity:1"
           id="path150" /></g><text
         y="139.48444"
         x="37.769596"
         transform="scale(1.2276318,0.81457652)"
         style="font-variant:normal;font-weight:normal;font-size:13.9474px;font-family:Verdana;-inkscape-font-specification:Verdana;writing-mode:lr-tb;fill:#ffcc00;fill-opacity:1;fill-rule:nonzero;stroke:none;stroke-width:0.808465"
         id="text154"><tspan
           style="font-size:13.9474px;stroke-width:0.808465"
           x="37.769596"
           y="139.48444"
           sodipodi:role="line"
           id="tspan152">prediction hypothesis</tspan></text><text
         y="35.053288"
         x="206.54335"
         transform="scale(1.2276317,0.81457655)"
         style="font-style:normal;font-variant:normal;font-weight:normal;font-stretch:normal;font-size:13.9474px;font-family:sans-serif;-inkscape-font-specification:sans-serif;writing-mode:lr-tb;fill:#0000ff;fill-opacity:1;fill-rule:nonzero;stroke:none;stroke-width:0.808465"
         id="text158"><tspan
           style="font-size:13.9474px;stroke-width:0.808465"
           y="35.053288"
           x="206.54335"
           sodipodi:role="line"
           id="tspan156">KF estimation</tspan></text><text
         y="102.52283"
         x="232.3578"
         transform="scale(1.2276317,0.81457655)"
         style="font-variant:normal;font-weight:normal;font-size:13.9474px;font-family:Verdana;-inkscape-font-specification:Verdana;writing-mode:lr-tb;fill:#d40000;fill-opacity:1;fill-rule:nonzero;stroke:none;stroke-width:0.808465"
         id="text162"><tspan
           style="font-size:13.9474px;stroke-width:0.808465"
           y="102.52283"
           x="232.3578"
           sodipodi:role="line"
           id="tspan160">sensory data</tspan></text><text
         y="290.26425"
         x="118.5396"
         transform="scale(1.2276316,0.8145766)"
         style="font-variant:normal;font-weight:normal;font-size:11.9549px;font-family:Verdana;-inkscape-font-specification:Verdana;writing-mode:lr-tb;fill:#000000;fill-opacity:1;fill-rule:nonzero;stroke:none;stroke-width:0.808465"
         id="text166"><tspan
           sodipodi:role="line"
           id="tspan164"
           style="font-size:11.9549px;stroke-width:0.808465"
           x="118.5396"
           y="290.26425" /></text><path
         d="m 241.5284,185.258 c 0,0.527 -0.6481,0.953 -1.4421,0.953 -0.79499,0 -1.43912,-0.426 -1.43912,-0.953 0,-0.528 0.64413,-0.957 1.43912,-0.957 0.794,0 1.4421,0.429 1.4421,0.957 z"
         style="fill:#000000;fill-opacity:1;fill-rule:nonzero;stroke:none;stroke-width:0.996242"
         id="path168" /><text
         y="227.40182"
         x="8.1979227"
         transform="scale(0.99624184,1.0037723)"
         style="font-variant:normal;font-weight:normal;font-size:10.9587px;font-family:Verdana;-inkscape-font-specification:Verdana;writing-mode:lr-tb;fill:#000000;fill-opacity:1;fill-rule:nonzero;stroke:none;stroke-width:0.996242"
         id="text182"><tspan
           style="stroke-width:0.996242"
           x="8.1979227"
           y="227.40182"
           id="tspan170">0</tspan><tspan
           style="stroke-width:0.996242"
           x="0.17882369 7.1375737 11.115568"
           y="186.12769"
           sodipodi:role="line"
           id="tspan172">0.2</tspan><tspan
           style="stroke-width:0.996242"
           x="-0.4652406 6.4935088 10.471503"
           y="142.1805"
           sodipodi:role="line"
           id="tspan174">0.4</tspan><tspan
           style="stroke-width:0.996242"
           x="0.17882369 7.1375737 11.115568"
           y="95.669724"
           sodipodi:role="line"
           id="tspan176">0.6</tspan><tspan
           style="stroke-width:0.996242"
           x="-0.8903898 6.0683599 10.046354"
           y="51.40683"
           sodipodi:role="line"
           id="tspan178">0.8</tspan><tspan
           style="stroke-width:0.996242"
           x="7.0192542"
           y="7.9942431"
           id="tspan180">1</tspan></text><text
         transform="scale(0.99624184,1.0037723)"
         xml:space="preserve"
         style="font-style:normal;font-weight:normal;font-size:13.9474px;line-height:1.25;font-family:sans-serif;fill:#000000;fill-opacity:1;stroke:none;stroke-width:0.747181"
         x="220.28273"
         y="251.08549"
         id="text186"><tspan
           sodipodi:role="line"
           id="tspan184"
           x="220.28273"
           y="251.08549"
           style="font-size:13.9474px;stroke-width:0.747181">Position</tspan></text><text
         id="text186-3"
         y="-10.760423"
         x="-143.00529"
         style="font-style:normal;font-weight:normal;font-size:13.9474px;line-height:1.25;font-family:sans-serif;fill:#000000;fill-opacity:1;stroke:none;stroke-width:0.747181"
         xml:space="preserve"
         transform="matrix(0,-1.0037723,0.99624187,0,0,0)"><tspan
           style="font-size:13.9474px;stroke-width:0.747181"
           y="-10.760423"
           x="-143.00529"
           id="tspan184-5"
           sodipodi:role="line">Strength </tspan></text></g></g></svg>
