<?xml version="1.0" encoding="UTF-8" standalone="no"?>
<svg
   xmlns:dc="http://purl.org/dc/elements/1.1/"
   xmlns:cc="http://creativecommons.org/ns#"
   xmlns:rdf="http://www.w3.org/1999/02/22-rdf-syntax-ns#"
   xmlns:svg="http://www.w3.org/2000/svg"
   xmlns="http://www.w3.org/2000/svg"
   xmlns:sodipodi="http://sodipodi.sourceforge.net/DTD/sodipodi-0.dtd"
   xmlns:inkscape="http://www.inkscape.org/namespaces/inkscape"
   version="1.1"
   id="svg10"
   xml:space="preserve"
   width="878"
   height="623.66669"
   viewBox="0 0 878 623.66669"
   sodipodi:docname="figure4.6.svg"
   inkscape:version="1.0 (4035a4fb49, 2020-05-01)"><metadata
     id="metadata16"><rdf:RDF><cc:Work
         rdf:about=""><dc:format>image/svg+xml</dc:format><dc:type
           rdf:resource="http://purl.org/dc/dcmitype/StillImage" /><dc:title></dc:title></cc:Work></rdf:RDF></metadata><defs
     id="defs14"><clipPath
       clipPathUnits="userSpaceOnUse"
       id="clipPath32"><path
         d="M 0,0 H 659 V 468 H 0 Z"
         id="path30" /></clipPath><clipPath
       clipPathUnits="userSpaceOnUse"
       id="clipPath46"><path
         d="M 0,0 H 637.055 V 468 H 0 Z"
         id="path44" /></clipPath><clipPath
       clipPathUnits="userSpaceOnUse"
       id="clipPath56"><path
         d="M 0,0 H 659 V 468 H 0 Z"
         id="path54" /></clipPath><clipPath
       clipPathUnits="userSpaceOnUse"
       id="clipPath68"><path
         d="M 0,0 H 659 V 468 H 0 Z"
         id="path66" /></clipPath></defs><sodipodi:namedview
     inkscape:document-rotation="0"
     pagecolor="#ffffff"
     bordercolor="#666666"
     borderopacity="1"
     objecttolerance="10"
     gridtolerance="10"
     guidetolerance="10"
     inkscape:pageopacity="0"
     inkscape:pageshadow="2"
     inkscape:window-width="1304"
     inkscape:window-height="745"
     id="namedview12"
     showgrid="false"
     inkscape:zoom="0.86424369"
     inkscape:cx="439"
     inkscape:cy="311.83334"
     inkscape:window-x="54"
     inkscape:window-y="-8"
     inkscape:window-maximized="1"
     inkscape:current-layer="g26" /><g
     id="g18"
     inkscape:groupmode="layer"
     inkscape:label="figure4.6"
     transform="matrix(1.3333333,0,0,1.3333333,0,1.8925e-5)"><g
       id="g20" /><g
       id="g22"><g
         id="g24"><g
           id="g26"><g
             id="g28"
             clip-path="url(#clipPath32)"><g
               id="g34"><path
                 d="M 0,0 H 658.5 V 467.75 H 0 Z"
                 style="fill:#ffffff;fill-opacity:1;fill-rule:nonzero;stroke:none"
                 id="path36" /><path
                 d="M 0,0 H 658.5 V 467.75 H 0 Z"
                 style="fill:#ffffff;fill-opacity:1;fill-rule:nonzero;stroke:none"
                 id="path38" /></g><g
               id="g40"><g
                 id="g42"
                 clip-path="url(#clipPath46)"><g
                   id="g48"><g
                     id="g50"><g
                       id="g52"
                       clip-path="url(#clipPath56)"><g
                         id="g58"><g
                           id="g60"><g
                             id="g62"><g
                               id="g64"
                               clip-path="url(#clipPath68)"><g
                                 id="g70"><path
                                   d="M 80.891,393.965 H 591.227 L 80.891,12.75"
                                   style="fill:#ffffff;fill-opacity:1;fill-rule:nonzero;stroke:none"
                                   id="path72" /><path
                                   d="M 591.227,393.965 V 12.75 H 80.891"
                                   style="fill:#ffffff;fill-opacity:1;fill-rule:nonzero;stroke:none"
                                   id="path74" /><g
                                   id="g76"
                                   transform="scale(0.822533,-1)"><path
                                   d="m 253.452,-393.965 v 4.832"
                                   style="fill:none;stroke:#262626;stroke-width:0.613373;stroke-linecap:butt;stroke-linejoin:miter;stroke-miterlimit:10;stroke-dasharray:none;stroke-opacity:1"
                                   id="path78" /></g><g
                                   id="g80"
                                   transform="scale(0.822533,-1)"><path
                                   d="m 253.452,-12.75 v -4.832"
                                   style="fill:none;stroke:#262626;stroke-width:0.613373;stroke-linecap:butt;stroke-linejoin:miter;stroke-miterlimit:10;stroke-dasharray:none;stroke-opacity:1"
                                   id="path82" /></g><g
                                   id="g84"
                                   transform="scale(0.822533,-1)"><path
                                   d="m 408.565,-393.965 v 4.832"
                                   style="fill:none;stroke:#262626;stroke-width:0.613373;stroke-linecap:butt;stroke-linejoin:miter;stroke-miterlimit:10;stroke-dasharray:none;stroke-opacity:1"
                                   id="path86" /></g><g
                                   id="g88"
                                   transform="scale(0.822533,-1)"><path
                                   d="m 408.565,-12.75 v -4.832"
                                   style="fill:none;stroke:#262626;stroke-width:0.613373;stroke-linecap:butt;stroke-linejoin:miter;stroke-miterlimit:10;stroke-dasharray:none;stroke-opacity:1"
                                   id="path90" /></g><g
                                   id="g92"
                                   transform="scale(0.822533,-1)"><path
                                   d="m 563.674,-393.965 v 4.832"
                                   style="fill:none;stroke:#262626;stroke-width:0.613373;stroke-linecap:butt;stroke-linejoin:miter;stroke-miterlimit:10;stroke-dasharray:none;stroke-opacity:1"
                                   id="path94" /></g><g
                                   id="g96"
                                   transform="scale(0.822533,-1)"><path
                                   d="m 563.674,-12.75 v -4.832"
                                   style="fill:none;stroke:#262626;stroke-width:0.613373;stroke-linecap:butt;stroke-linejoin:miter;stroke-miterlimit:10;stroke-dasharray:none;stroke-opacity:1"
                                   id="path98" /></g><g
                                   id="g100"
                                   transform="scale(0.822533,-1)"><path
                                   d="m 718.788,-393.965 v 4.832"
                                   style="fill:none;stroke:#262626;stroke-width:0.613373;stroke-linecap:butt;stroke-linejoin:miter;stroke-miterlimit:10;stroke-dasharray:none;stroke-opacity:1"
                                   id="path102" /></g><g
                                   id="g104"
                                   transform="scale(0.822533,-1)"><path
                                   d="m 718.788,-12.75 v -4.832"
                                   style="fill:none;stroke:#262626;stroke-width:0.613373;stroke-linecap:butt;stroke-linejoin:miter;stroke-miterlimit:10;stroke-dasharray:none;stroke-opacity:1"
                                   id="path106" /></g><g
                                   id="g108"
                                   transform="scale(0.822533,-1)"><path
                                   d="m 98.343,-393.965 h 6.207"
                                   style="fill:none;stroke:#262626;stroke-width:0.613373;stroke-linecap:butt;stroke-linejoin:miter;stroke-miterlimit:10;stroke-dasharray:none;stroke-opacity:1"
                                   id="path110" /></g><g
                                   id="g112"
                                   transform="scale(0.822533,-1)"><path
                                   d="m 718.788,-393.965 h -6.212"
                                   style="fill:none;stroke:#262626;stroke-width:0.613373;stroke-linecap:butt;stroke-linejoin:miter;stroke-miterlimit:10;stroke-dasharray:none;stroke-opacity:1"
                                   id="path114" /></g><g
                                   id="g116"
                                   transform="scale(0.822533,-1)"><path
                                   d="m 98.343,-317.723 h 6.207"
                                   style="fill:none;stroke:#262626;stroke-width:0.613373;stroke-linecap:butt;stroke-linejoin:miter;stroke-miterlimit:10;stroke-dasharray:none;stroke-opacity:1"
                                   id="path118" /></g><g
                                   id="g120"
                                   transform="scale(0.822533,-1)"><path
                                   d="m 718.788,-317.723 h -6.212"
                                   style="fill:none;stroke:#262626;stroke-width:0.613373;stroke-linecap:butt;stroke-linejoin:miter;stroke-miterlimit:10;stroke-dasharray:none;stroke-opacity:1"
                                   id="path122" /></g><g
                                   id="g124"
                                   transform="scale(0.822533,-1)"><path
                                   d="m 98.343,-241.48 h 6.207"
                                   style="fill:none;stroke:#262626;stroke-width:0.613373;stroke-linecap:butt;stroke-linejoin:miter;stroke-miterlimit:10;stroke-dasharray:none;stroke-opacity:1"
                                   id="path126" /></g><g
                                   id="g128"
                                   transform="scale(0.822533,-1)"><path
                                   d="m 718.788,-241.48 h -6.212"
                                   style="fill:none;stroke:#262626;stroke-width:0.613373;stroke-linecap:butt;stroke-linejoin:miter;stroke-miterlimit:10;stroke-dasharray:none;stroke-opacity:1"
                                   id="path130" /></g><g
                                   id="g132"
                                   transform="scale(0.822533,-1)"><path
                                   d="m 98.343,-165.234 h 6.207"
                                   style="fill:none;stroke:#262626;stroke-width:0.613373;stroke-linecap:butt;stroke-linejoin:miter;stroke-miterlimit:10;stroke-dasharray:none;stroke-opacity:1"
                                   id="path134" /></g><g
                                   id="g136"
                                   transform="scale(0.822533,-1)"><path
                                   d="m 718.788,-165.234 h -6.212"
                                   style="fill:none;stroke:#262626;stroke-width:0.613373;stroke-linecap:butt;stroke-linejoin:miter;stroke-miterlimit:10;stroke-dasharray:none;stroke-opacity:1"
                                   id="path138" /></g><g
                                   id="g140"
                                   transform="scale(0.822533,-1)"><path
                                   d="m 98.343,-88.992 h 6.207"
                                   style="fill:none;stroke:#262626;stroke-width:0.613373;stroke-linecap:butt;stroke-linejoin:miter;stroke-miterlimit:10;stroke-dasharray:none;stroke-opacity:1"
                                   id="path142" /></g><g
                                   id="g144"
                                   transform="scale(0.822533,-1)"><path
                                   d="m 718.788,-88.992 h -6.212"
                                   style="fill:none;stroke:#262626;stroke-width:0.613373;stroke-linecap:butt;stroke-linejoin:miter;stroke-miterlimit:10;stroke-dasharray:none;stroke-opacity:1"
                                   id="path146" /></g><g
                                   id="g148"
                                   transform="scale(0.822533,-1)"><path
                                   d="m 98.343,-12.75 h 6.207"
                                   style="fill:none;stroke:#262626;stroke-width:0.613373;stroke-linecap:butt;stroke-linejoin:miter;stroke-miterlimit:10;stroke-dasharray:none;stroke-opacity:1"
                                   id="path150" /></g><g
                                   id="g152"
                                   transform="scale(0.822533,-1)"><path
                                   d="m 718.788,-12.75 h -6.212"
                                   style="fill:none;stroke:#262626;stroke-width:0.613373;stroke-linecap:butt;stroke-linejoin:miter;stroke-miterlimit:10;stroke-dasharray:none;stroke-opacity:1"
                                   id="path154" /></g><g
                                   id="g156"
                                   transform="scale(0.822533,-1)"><path
                                   d="M 98.343,-393.965 H 651.75"
                                   style="fill:none;stroke:#262626;stroke-width:0.92006;stroke-linecap:square;stroke-linejoin:miter;stroke-miterlimit:10;stroke-dasharray:none;stroke-opacity:1"
                                   id="path158" /></g><g
                                   id="g160"
                                   transform="scale(0.822533,-1)"><path
                                   d="M 98.343,-12.75 H 653.778"
                                   style="fill:none;stroke:#262626;stroke-width:1.5641;stroke-linecap:square;stroke-linejoin:miter;stroke-miterlimit:10;stroke-dasharray:none;stroke-opacity:1"
                                   id="path162" /></g><g
                                   id="g164"
                                   transform="scale(0.822533,-1)"><path
                                   d="M 98.343,-393.965 V -12.75"
                                   style="fill:none;stroke:#262626;stroke-width:1.5641;stroke-linecap:square;stroke-linejoin:miter;stroke-miterlimit:10;stroke-dasharray:none;stroke-opacity:1"
                                   id="path166" /></g><g
                                   id="g168"
                                   transform="scale(0.822533,-1)"><path
                                   d="M 651.75,-393.965 V -12.75"
                                   style="fill:none;stroke:#262626;stroke-width:1.5641;stroke-linecap:square;stroke-linejoin:miter;stroke-miterlimit:10;stroke-dasharray:none;stroke-opacity:1"
                                   id="path170" /></g><g
                                   id="g172"
                                   transform="scale(0.822533,-1)"><path
                                   d="m 98.343,-165.234 3.101,8.582 3.102,-7.477 3.101,3.602 3.106,0.937 3.101,1.852 3.101,2.652 3.101,0.379 3.101,2.148 3.106,-164.156 3.101,174.453 3.101,16.574 3.101,16.563 3.106,13.691 3.101,-0.644 3.102,-1.902 3.101,-1.852 3.106,-2.645 3.101,-1.82 3.101,-212.418 3.101,208.406 3.106,-2.226 3.101,-1.762 3.101,-1.937 3.101,-2.551 3.101,-2.383 3.106,-1.57 3.101,-1.84 3.101,-2.149 3.102,-2.054 3.105,-8.391 3.102,-17.035 3.101,-15.375 3.101,-16.887 3.106,-16.89 3.101,-16.137 3.101,-17.004 3.101,-15.379 3.101,-1.566 3.106,-65.27 3.101,66.719 3.101,2.207 3.101,-0.035 3.106,0.851 3.102,1.356 3.101,0.996 3.101,0.73 3.106,1.121 3.101,0.696 3.101,1.176 3.101,0.625 3.101,1.152 3.106,0.777 3.101,1.543 3.101,7.141 3.101,10.387 3.106,8.015 3.101,9.988 3.102,24.575 3.101,-140.02 3.106,154.445 3.101,15.016 3.101,-1.012 3.101,25.676 3.101,19.496 3.106,16.074 3.101,12.903 3.101,9.301 3.101,22.175 3.106,0.395 3.101,7.5 3.101,-1.992 3.102,-2.836 3.105,-9.016 3.102,-11.078 3.101,-0.355 3.101,-10.575 3.101,8.082 3.106,3.719 3.101,-257.918 3.101,257.453 3.101,0.336 3.106,1.387 3.101,-8.922 3.101,-13.281 3.102,11.215 3.105,-1.364 3.102,0.789 3.101,11.829 3.101,-28.125 3.106,19.027 3.101,-17.789 3.101,-11.219 3.101,-28.074 3.101,8.734 3.106,-27.351 3.101,10.351 3.101,-17.285 3.101,-18.957 3.106,-148.754 3.101,107.129 3.102,-1.023 3.101,-3.45 3.106,-20.179 3.101,-4.914 3.101,-7.141 3.101,-39.164 3.101,10.414 3.106,8.266 3.101,-25.094 3.101,0.988 3.101,-12.301 3.106,1.567 3.101,-20.672 3.102,1.16 3.101,-21.434 3.106,2.012 3.101,3.196 3.101,29.976 3.101,-9.336 3.101,30.926 3.106,7.461 3.101,15.18 3.101,19.882 3.101,15.477 3.106,0.016 3.101,21.234 3.101,31.773 3.102,-2.957 3.105,31.578 3.102,-44.25 3.101,9.739 3.101,1.289 3.101,-8.219 3.106,-5.805 3.101,-1.117 3.101,17.918 3.101,-3.863 3.106,13.629 3.101,-149.891 3.101,178.684 3.102,30.398 3.105,0.934 3.102,-4.254 3.101,0.793 3.101,15.773 3.106,-1.496 3.101,3.563 3.101,-9.153 3.101,1.274 3.101,-6.684 3.106,-2.48 3.101,-5.918 3.101,-5.633 3.101,-3.996 3.106,-10.512 3.101,-13.516 3.102,-13.468"
                                   style="fill:none;stroke:#0072bd;stroke-width:1.84012;stroke-linecap:butt;stroke-linejoin:round;stroke-miterlimit:10;stroke-dasharray:none;stroke-opacity:1"
                                   id="path174" /></g><text
                                   transform="matrix(1,0,0,0.94710203,80.307607,383.87881)"
                                   style="font-variant:normal;font-weight:normal;font-size:22.8646px;font-family:Verdana;-inkscape-font-specification:Verdana;writing-mode:lr-tb;fill:#000000;fill-opacity:1;fill-rule:nonzero;stroke:none"
                                   id="text178"><tspan
                                   x="0 19.343435 35.005672 42.802494 56.338329 71.497543 79.2715 94.522179 110.50452 126.48686 141.64607 157.62842 165.40237 180.26436 191.19362 209.00514 224.25581 232.05263 245.58847 253.36243 269.09326 278.7421 286.51605 305.05923 321.29309 338.67017 353.21204 361.00888 379.96359 395.21429 405.61768"
                                   y="0"
                                   sodipodi:role="line"
                                   id="tspan176">Noise added y-Axis of USBL Data</tspan></text></g></g></g></g></g></g></g></g></g></g></g><rect
             style="fill:#ffffff;stroke-width:2.25"
             id="rect180"
             width="427.83075"
             height="26.90213"
             x="82.442024"
             y="361.87711" /><text
             xml:space="preserve"
             style="font-style:normal;font-weight:normal;font-size:20px;line-height:1.25;font-family:sans-serif;fill:#000000;fill-opacity:1;stroke:none;stroke-width:0.75"
             x="212.64844"
             y="415.68137"
             id="text184"><tspan
               sodipodi:role="line"
               id="tspan182"
               x="212.64844"
               y="415.68137"
               style="font-size:20px;stroke-width:0.75">USBL sensory values</tspan></text><text
             id="text184-0"
             y="66.0224"
             x="-368.48505"
             style="font-style:normal;font-weight:normal;font-size:20px;line-height:1.25;font-family:sans-serif;fill:#000000;fill-opacity:1;stroke:none;stroke-width:0.75"
             xml:space="preserve"
             transform="rotate(-90)"><tspan
               style="font-size:20px;stroke-width:0.75"
               y="66.0224"
               x="-368.48505"
               id="tspan182-0"
               sodipodi:role="line">Vertical coordinate of noisy USBL</tspan></text></g></g></g></g></svg>
