<?xml version="1.0" encoding="UTF-8" standalone="no"?>
<svg
   xmlns:dc="http://purl.org/dc/elements/1.1/"
   xmlns:cc="http://creativecommons.org/ns#"
   xmlns:rdf="http://www.w3.org/1999/02/22-rdf-syntax-ns#"
   xmlns:svg="http://www.w3.org/2000/svg"
   xmlns="http://www.w3.org/2000/svg"
   xmlns:sodipodi="http://sodipodi.sourceforge.net/DTD/sodipodi-0.dtd"
   xmlns:inkscape="http://www.inkscape.org/namespaces/inkscape"
   inkscape:version="1.0 (4035a4fb49, 2020-05-01)"
   sodipodi:docname="figure2.4.svg"
   viewBox="0 0 600.58484 317.64948"
   height="317.64948"
   width="600.58484"
   xml:space="preserve"
   id="svg10"
   version="1.1"><metadata
     id="metadata16"><rdf:RDF><cc:Work
         rdf:about=""><dc:format>image/svg+xml</dc:format><dc:type
           rdf:resource="http://purl.org/dc/dcmitype/StillImage" /><dc:title></dc:title></cc:Work></rdf:RDF></metadata><defs
     id="defs14" /><sodipodi:namedview
     inkscape:current-layer="g20"
     inkscape:window-maximized="1"
     inkscape:window-y="-8"
     inkscape:window-x="54"
     inkscape:cy="180.77709"
     inkscape:cx="234.22612"
     inkscape:zoom="1.1998463"
     showgrid="false"
     id="namedview12"
     inkscape:window-height="745"
     inkscape:window-width="1304"
     inkscape:pageshadow="2"
     inkscape:pageopacity="0"
     guidetolerance="10"
     gridtolerance="10"
     objecttolerance="10"
     borderopacity="1"
     bordercolor="#666666"
     pagecolor="#ffffff" /><g
     transform="matrix(1.3333333,0,0,1.3333333,0,3.2745702e-6)"
     inkscape:label="figure2.4"
     inkscape:groupmode="layer"
     id="g18"><g
       id="g20"><path
         id="path22"
         style="fill:#ffffff;fill-opacity:1;fill-rule:nonzero;stroke:none"
         d="m 18.215,227.668 h 431.93 L 18.215,3.316" /><g
         transform="scale(0.987437,1)"
         id="g24"><path
           id="path26"
           style="fill:none;stroke:#232323;stroke-width:0.395093;stroke-linecap:butt;stroke-linejoin:miter;stroke-miterlimit:10;stroke-dasharray:none;stroke-opacity:1"
           d="m 18.447,227.668 v -2.844" /></g><g
         transform="scale(0.987437,1)"
         id="g28"><path
           id="path30"
           style="fill:none;stroke:#232323;stroke-width:0.395093;stroke-linecap:butt;stroke-linejoin:miter;stroke-miterlimit:10;stroke-dasharray:none;stroke-opacity:1"
           d="M 18.447,3.316 V 6.164" /></g><g
         transform="scale(0.987437,1)"
         id="g32"><path
           id="path34"
           style="fill:none;stroke:#232323;stroke-width:0.395093;stroke-linecap:butt;stroke-linejoin:miter;stroke-miterlimit:10;stroke-dasharray:none;stroke-opacity:1"
           d="m 105.932,227.668 v -2.844" /></g><g
         transform="scale(0.987437,1)"
         id="g36"><path
           id="path38"
           style="fill:none;stroke:#232323;stroke-width:0.395093;stroke-linecap:butt;stroke-linejoin:miter;stroke-miterlimit:10;stroke-dasharray:none;stroke-opacity:1"
           d="M 105.932,3.316 V 6.164" /></g><g
         transform="scale(0.987437,1)"
         id="g40"><path
           id="path42"
           style="fill:none;stroke:#232323;stroke-width:0.395093;stroke-linecap:butt;stroke-linejoin:miter;stroke-miterlimit:10;stroke-dasharray:none;stroke-opacity:1"
           d="m 193.418,227.668 v -2.844" /></g><g
         transform="scale(0.987437,1)"
         id="g44"><path
           id="path46"
           style="fill:none;stroke:#232323;stroke-width:0.395093;stroke-linecap:butt;stroke-linejoin:miter;stroke-miterlimit:10;stroke-dasharray:none;stroke-opacity:1"
           d="m 280.9,227.668 v -2.844" /></g><g
         transform="scale(0.987437,1)"
         id="g48"><path
           id="path50"
           style="fill:none;stroke:#232323;stroke-width:0.395093;stroke-linecap:butt;stroke-linejoin:miter;stroke-miterlimit:10;stroke-dasharray:none;stroke-opacity:1"
           d="m 368.386,227.668 v -2.844" /></g><g
         transform="scale(0.987437,1)"
         id="g52"><path
           id="path54"
           style="fill:none;stroke:#232323;stroke-width:0.395093;stroke-linecap:butt;stroke-linejoin:miter;stroke-miterlimit:10;stroke-dasharray:none;stroke-opacity:1"
           d="M 368.386,3.316 V 6.164" /></g><g
         transform="scale(0.987437,1)"
         id="g56"><path
           id="path58"
           style="fill:none;stroke:#232323;stroke-width:0.395093;stroke-linecap:butt;stroke-linejoin:miter;stroke-miterlimit:10;stroke-dasharray:none;stroke-opacity:1"
           d="m 455.871,227.668 v -2.844" /></g><g
         transform="scale(0.987437,1)"
         id="g60"><path
           id="path62"
           style="fill:none;stroke:#232323;stroke-width:0.395093;stroke-linecap:butt;stroke-linejoin:miter;stroke-miterlimit:10;stroke-dasharray:none;stroke-opacity:1"
           d="M 455.871,3.316 V 6.164" /></g><g
         transform="scale(0.987437,1)"
         id="g64"><path
           id="path66"
           style="fill:none;stroke:#232323;stroke-width:0.395093;stroke-linecap:butt;stroke-linejoin:miter;stroke-miterlimit:10;stroke-dasharray:none;stroke-opacity:1"
           d="m 18.447,227.668 h 4.379" /></g><g
         transform="scale(0.987437,1)"
         id="g68"><path
           id="path70"
           style="fill:none;stroke:#232323;stroke-width:0.395093;stroke-linecap:butt;stroke-linejoin:miter;stroke-miterlimit:10;stroke-dasharray:none;stroke-opacity:1"
           d="m 455.871,227.668 h -4.379" /></g><g
         transform="scale(0.987437,1)"
         id="g72"><path
           id="path74"
           style="fill:none;stroke:#232323;stroke-width:0.395093;stroke-linecap:butt;stroke-linejoin:miter;stroke-miterlimit:10;stroke-dasharray:none;stroke-opacity:1"
           d="m 18.447,182.797 h 4.379" /></g><g
         transform="scale(0.987437,1)"
         id="g76"><path
           id="path78"
           style="fill:none;stroke:#232323;stroke-width:0.395093;stroke-linecap:butt;stroke-linejoin:miter;stroke-miterlimit:10;stroke-dasharray:none;stroke-opacity:1"
           d="m 455.871,182.797 h -4.379" /></g><g
         transform="scale(0.987437,1)"
         id="g80"><path
           id="path82"
           style="fill:none;stroke:#232323;stroke-width:0.395093;stroke-linecap:butt;stroke-linejoin:miter;stroke-miterlimit:10;stroke-dasharray:none;stroke-opacity:1"
           d="m 18.447,137.93 h 4.379" /></g><g
         transform="scale(0.987437,1)"
         id="g84"><path
           id="path86"
           style="fill:none;stroke:#232323;stroke-width:0.395093;stroke-linecap:butt;stroke-linejoin:miter;stroke-miterlimit:10;stroke-dasharray:none;stroke-opacity:1"
           d="m 455.871,137.93 h -4.379" /></g><g
         transform="scale(0.987437,1)"
         id="g88"><path
           id="path90"
           style="fill:none;stroke:#232323;stroke-width:0.395093;stroke-linecap:butt;stroke-linejoin:miter;stroke-miterlimit:10;stroke-dasharray:none;stroke-opacity:1"
           d="m 18.447,93.059 h 4.379" /></g><g
         transform="scale(0.987437,1)"
         id="g92"><path
           id="path94"
           style="fill:none;stroke:#232323;stroke-width:0.395093;stroke-linecap:butt;stroke-linejoin:miter;stroke-miterlimit:10;stroke-dasharray:none;stroke-opacity:1"
           d="m 455.871,93.059 h -4.379" /></g><g
         transform="scale(0.987437,1)"
         id="g96"><path
           id="path98"
           style="fill:none;stroke:#232323;stroke-width:0.395093;stroke-linecap:butt;stroke-linejoin:miter;stroke-miterlimit:10;stroke-dasharray:none;stroke-opacity:1"
           d="m 18.447,48.191 h 4.379" /></g><g
         transform="scale(0.987437,1)"
         id="g100"><path
           id="path102"
           style="fill:none;stroke:#232323;stroke-width:0.395093;stroke-linecap:butt;stroke-linejoin:miter;stroke-miterlimit:10;stroke-dasharray:none;stroke-opacity:1"
           d="m 455.871,48.191 h -4.379" /></g><g
         transform="scale(0.987437,1)"
         id="g104"><path
           id="path106"
           style="fill:none;stroke:#232323;stroke-width:0.395093;stroke-linecap:butt;stroke-linejoin:miter;stroke-miterlimit:10;stroke-dasharray:none;stroke-opacity:1"
           d="m 18.447,3.316 h 4.379" /></g><g
         transform="scale(0.987437,1)"
         id="g108"><path
           id="path110"
           style="fill:none;stroke:#232323;stroke-width:0.395093;stroke-linecap:butt;stroke-linejoin:miter;stroke-miterlimit:10;stroke-dasharray:none;stroke-opacity:1"
           d="m 455.871,3.316 h -4.379" /></g><g
         transform="scale(0.987437,1)"
         id="g112"><path
           id="path114"
           style="fill:none;stroke:#232323;stroke-width:0.39529;stroke-linecap:square;stroke-linejoin:miter;stroke-miterlimit:10;stroke-dasharray:none;stroke-opacity:1"
           d="M 18.447,227.668 H 455.871" /></g><g
         transform="scale(0.987437,1)"
         id="g116"><path
           id="path118"
           style="fill:none;stroke:#232323;stroke-width:0.592639;stroke-linecap:square;stroke-linejoin:miter;stroke-miterlimit:10;stroke-dasharray:none;stroke-opacity:1"
           d="M 18.447,3.316 H 455.871" /></g><g
         transform="scale(0.987437,1)"
         id="g120"><path
           id="path122"
           style="fill:none;stroke:#232323;stroke-width:0.592639;stroke-linecap:square;stroke-linejoin:miter;stroke-miterlimit:10;stroke-dasharray:none;stroke-opacity:1"
           d="M 18.447,227.668 V 3.316" /></g><g
         transform="scale(0.987437,1)"
         id="g124"><path
           id="path126"
           style="fill:none;stroke:#232323;stroke-width:0.592639;stroke-linecap:square;stroke-linejoin:miter;stroke-miterlimit:10;stroke-dasharray:none;stroke-opacity:1"
           d="M 455.871,227.668 V 3.316" /></g><g
         transform="scale(0.987437,1)"
         id="g128"><path
           id="path130"
           style="fill:none;stroke:#000000;stroke-width:0.592639;stroke-linecap:butt;stroke-linejoin:miter;stroke-miterlimit:4;stroke-dasharray:3.55584, 3.55584;stroke-dashoffset:0;stroke-opacity:1"
           d="M 248.196,13.59 V 228.16" /></g><g
         transform="scale(0.987437,1)"
         id="g132"><path
           id="path134"
           style="fill:none;stroke:#0070bd;stroke-width:2.2399;stroke-linecap:butt;stroke-linejoin:round;stroke-miterlimit:10;stroke-dasharray:none;stroke-opacity:1"
           d="m 62.191,227.668 142.296,-0.953 4.371,-0.012 4.375,-0.066 4.376,-0.414 4.375,-2 4.375,-7.364 4.372,-20.507 4.375,-42.477 4.375,-63.234 4.375,-61.914 4.372,-23.497 4.375,23.497 1.614,22.886 2.761,39.028 4.376,63.234 4.375,42.477 4.371,20.507 4.375,7.364 4.376,2 4.375,0.414 4.375,0.066 4.372,0.012 163.898,0.953" /></g><g
         transform="scale(0.987437,1)"
         id="g136"><path
           id="path138"
           style="fill:none;stroke:#d75117;stroke-width:1.56793;stroke-linecap:butt;stroke-linejoin:round;stroke-miterlimit:10;stroke-dasharray:none;stroke-opacity:1"
           d="m 19.566,227.668 h 156.359 l 8.743,-0.008 4.375,-0.015 4.375,-0.028 4.371,-0.066 4.376,-0.125 4.375,-0.246 4.375,-0.45 4.376,-0.808 4.371,-1.371 4.375,-2.231 4.375,-3.468 4.376,-5.149 4.371,-7.293 4.375,-9.82 4.376,-12.586 4.375,-15.277 4.375,-17.504 4.371,-18.809 4.372,-18.785 4.375,-17.137 4.375,-13.797 4.376,-8.965 4.371,-3.105 4.375,3.105 4.376,8.965 4.375,13.797 4.371,17.137 4.375,18.785 4.376,18.809 4.375,17.504 4.375,15.277 4.372,12.586 4.375,9.82 4.375,7.293 4.375,5.149 4.376,3.468 4.371,2.231 4.375,1.371 4.372,0.808 4.375,0.45 4.371,0.246 4.375,0.125 4.376,0.066 4.375,0.028 4.375,0.015 4.372,0.004 8.75,0.004 h 65.613" /></g><g
         transform="scale(0.987437,1)"
         id="g140"><path
           id="path142"
           style="fill:none;stroke:#ebb01e;stroke-width:1.56793;stroke-linecap:butt;stroke-linejoin:round;stroke-miterlimit:10;stroke-dasharray:none;stroke-opacity:1"
           d="m 19.566,227.375 47.001,-1.379 4.375,-0.555 4.371,-0.703 4.376,-0.89 4.375,-1.106 4.375,-1.371 4.371,-1.664 4.372,-2.016 4.375,-2.39 4.375,-2.813 4.376,-3.265 4.375,-3.754 4.371,-4.242 4.376,-4.747 4.375,-5.23 4.375,-5.68 4.371,-6.086 4.376,-6.418 4.375,-6.656 8.75,-13.558 4.372,-6.637 4.375,-6.348 4.375,-5.894 4.376,-5.297 4.375,-4.555 4.371,-3.691 4.372,-2.715 4.375,-1.664 4.375,-0.555 4.371,0.555 4.376,1.664 4.375,2.715 4.375,3.691 4.376,4.555 4.371,5.297 4.375,5.894 4.375,6.348 4.376,6.637 4.371,6.781 4.375,6.777 4.376,6.656 4.375,6.418 4.375,6.086 4.371,5.68 4.372,5.23 4.375,4.747 4.375,4.242 4.376,3.754 4.371,3.265 4.375,2.813 4.376,2.39 4.375,2.016 4.371,1.664 4.375,1.371 4.376,1.106 4.375,0.89 4.375,0.703 4.372,0.555 4.375,0.426 4.375,0.324 4.375,0.254 4.376,0.184 4.371,0.136 4.375,0.102 4.372,0.078 4.375,0.047 4.371,0.039 8.751,0.047 4.375,0.012 4.375,0.007 4.372,0.008 13.125,0.008 h 8.747 l 4.375,0.004 h 48.116" /></g><g
         transform="scale(0.987437,1)"
         id="g144"><path
           id="path146"
           style="fill:none;stroke:#000000;stroke-width:0.592639;stroke-linecap:butt;stroke-linejoin:miter;stroke-miterlimit:4;stroke-dasharray:3.55584, 3.55584;stroke-dashoffset:0;stroke-opacity:1"
           d="m 280.868,72.781 4.407,153.547 -4.375,1.34" /></g><g
         transform="scale(0.987437,1)"
         id="g148"><path
           id="path150"
           style="fill:none;stroke:#000000;stroke-width:0.592639;stroke-linecap:butt;stroke-linejoin:miter;stroke-miterlimit:4;stroke-dasharray:3.55584, 3.55584;stroke-dashoffset:0;stroke-opacity:1"
           d="m 193.201,116.727 1.471,107.187 -2.939,1.856" /></g><text
         id="text154"
         style="font-variant:normal;font-weight:normal;font-size:13.1986px;font-family:Verdana;-inkscape-font-specification:Verdana;writing-mode:lr-tb;fill:#ffcc00;fill-opacity:1;fill-rule:nonzero;stroke:none"
         transform="matrix(1,0,0,0.65855698,61.875556,113.62075)"><tspan
           id="tspan152"
           sodipodi:role="line"
           y="0"
           x="0 9.6481943 16.234308 25.433748 35.081944 39.305504 47.343464 53.494022 57.730782 67.101807 76.86879 82.306618 91.954811 101.08826 110.73646 120.10748 126.20525 135.97223 145.17166 153.20963 157.44638">prediction hypothesis</tspan></text><text
         id="text158"
         style="font-variant:normal;font-weight:normal;font-size:13.1986px;font-family:Verdana;-inkscape-font-specification:Verdana;writing-mode:lr-tb;fill:#0000ff;fill-opacity:1;fill-rule:nonzero;stroke:none"
         transform="matrix(1,0,0,0.65855698,255.6337,28.553587)"><tspan
           id="tspan156"
           sodipodi:role="line"
           y="0"
           x="0 10.704084 19.573559 25.011393 34.210835 42.248795 48.346561 52.583317 67.616554 76.947975 83.045746 87.282501 96.653526 106.4205">KF estimation </tspan></text><text
         id="text162"
         style="font-variant:normal;font-weight:normal;font-size:13.1986px;font-family:Verdana;-inkscape-font-specification:Verdana;writing-mode:lr-tb;fill:#d40000;fill-opacity:1;fill-rule:nonzero;stroke:none"
         transform="matrix(1,0,0,0.65855698,287.56389,83.512693)"><tspan
           id="tspan160"
           sodipodi:role="line"
           y="0"
           x="0 8.037962 17.237404 27.017584 36.375408 42.961521 52.108166 57.532803 67.181 76.499222 82.596992">senory data</tspan></text><text
         id="text166"
         style="font-variant:normal;font-weight:normal;font-size:14.7872px;font-family:Verdana;-inkscape-font-specification:Verdana;writing-mode:lr-tb;fill:#000000;fill-opacity:1;fill-rule:nonzero;stroke:none"
         transform="matrix(1,0,0,0.65855707,146.78087,236.44248)"><tspan
           y="0"
           x="0"
           style="font-size:14.7872px"
           id="tspan164"
           sodipodi:role="line" /></text><path
         id="path168"
         style="fill:#000000;fill-opacity:1;fill-rule:nonzero;stroke:none"
         d="m 243.512,185.258 c 0,0.527 -0.653,0.953 -1.453,0.953 -0.801,0 -1.45,-0.426 -1.45,-0.953 0,-0.528 0.649,-0.957 1.45,-0.957 0.8,0 1.453,0.429 1.453,0.957 z" /><text
         id="text182"
         style="font-variant:normal;font-weight:normal;font-size:11px;font-family:Verdana;-inkscape-font-specification:Verdana;writing-mode:lr-tb;fill:#000000;fill-opacity:1;fill-rule:nonzero;stroke:none"
         transform="translate(8.386755,228.25966)"><tspan
           id="tspan170"
           y="0"
           x="0">0</tspan><tspan
           id="tspan172"
           sodipodi:role="line"
           y="-41.429844"
           x="-8.0493498 -1.0643491 2.9286513">0.2</tspan><tspan
           id="tspan174"
           sodipodi:role="line"
           y="-85.542816"
           x="-8.6958437 -1.7108433 2.2821569">0.4</tspan><tspan
           id="tspan176"
           sodipodi:role="line"
           y="-132.22903"
           x="-8.0493498 -1.0643491 2.9286513">0.6</tspan><tspan
           id="tspan178"
           sodipodi:role="line"
           y="-176.65891"
           x="-9.1225967 -2.1375961 1.8554043">0.8</tspan><tspan
           id="tspan180"
           y="-220.23526"
           x="-1.183115">1</tspan></text><text
         id="text186"
         y="250.53267"
         x="206.27162"
         style="font-style:normal;font-weight:normal;font-size:16px;line-height:1.25;font-family:sans-serif;fill:#000000;fill-opacity:1;stroke:none;stroke-width:0.75"
         xml:space="preserve"><tspan
           style="font-size:16px;stroke-width:0.75"
           y="250.53267"
           x="206.27162"
           id="tspan184"
           sodipodi:role="line">Distance</tspan></text><text
         transform="rotate(-90)"
         xml:space="preserve"
         style="font-style:normal;font-weight:normal;font-size:16px;line-height:1.25;font-family:sans-serif;fill:#000000;fill-opacity:1;stroke:none;stroke-width:0.75"
         x="-179.54477"
         y="-10.643107"
         id="text186-3"><tspan
           sodipodi:role="line"
           id="tspan184-5"
           x="-179.54477"
           y="-10.643107"
           style="font-size:16px;stroke-width:0.75">activity strength</tspan></text></g></g></svg>
